<?xml version="1.0" encoding="utf-8"?>
<!-- Generator: Adobe Illustrator 16.0.0, SVG Export Plug-In . SVG Version: 6.00 Build 0)  -->
<!DOCTYPE svg PUBLIC "-//W3C//DTD SVG 1.1//EN" "http://www.w3.org/Graphics/SVG/1.1/DTD/svg11.dtd">
<svg version="1.1" id="Layer_1" xmlns="http://www.w3.org/2000/svg" xmlns:xlink="http://www.w3.org/1999/xlink" x="0px" y="0px"
	 width="1200px" height="1200px" viewBox="0 0 1200 1200" enable-background="new 0 0 1200 1200" xml:space="preserve">
<g opacity="0.2">
	<g>
		<path fill="#FFFFFF" d="M910.236,551.174l-25.967-0.007c-5.259,0-9.578-4.331-9.578-9.606v-12.367
			c-3.81-0.756-7.621-1.734-11.354-2.888l-6.537,11.226c-1.682,2.965-4.877,4.801-8.265,4.801c-1.678,0-3.349-0.452-4.816-1.292
			l-22.475-12.967c-2.205-1.245-3.812-3.31-4.477-5.809c-0.659-2.458-0.315-5.049,0.966-7.311l6.19-10.697
			c-2.903-2.525-5.727-5.271-8.416-8.176l-11.251,6.486c-1.468,0.841-3.104,1.249-4.783,1.249c-3.421,0-6.617-1.833-8.341-4.755
			l-12.968-22.493c-1.266-2.217-1.619-4.805-0.956-7.258c0.686-2.502,2.24-4.566,4.501-5.858l10.684-6.178
			c-1.269-3.672-2.335-7.475-3.192-11.297H776.24c-5.294,0-9.62-4.334-9.62-9.614v-25.929c0-5.282,4.326-9.618,9.62-9.618H788.6
			c0.758-3.83,1.728-7.64,2.888-11.366l-11.236-6.487c-2.237-1.289-3.812-3.354-4.481-5.857c-0.668-2.458-0.313-5.05,0.935-7.267
			l12.97-22.435c1.762-2.975,4.964-4.808,8.381-4.808c1.674,0,3.339,0.405,4.78,1.242l10.718,6.184
			c2.504-2.848,5.247-5.663,8.158-8.344l-6.48-11.273c-1.302-2.223-1.624-4.82-0.954-7.326c0.661-2.453,2.243-4.512,4.468-5.797
			l22.438-12.97c1.475-0.843,3.146-1.295,4.826-1.295c3.442,0,6.612,1.834,8.341,4.804l6.153,10.686
			c3.705-1.235,7.473-2.302,11.289-3.193v-12.924c0-5.321,4.325-9.61,9.619-9.61h25.928c5.3,0,9.613,4.289,9.613,9.61v12.366
			c3.909,0.763,7.722,1.697,11.392,2.846l6.48-11.22c1.718-2.971,4.917-4.807,8.329-4.807c1.675,0,3.34,0.45,4.77,1.286
			l22.483,12.973c4.581,2.662,6.152,8.543,3.52,13.125l-6.202,10.738c2.931,2.533,5.746,5.277,8.388,8.172l11.274-6.488
			c1.428-0.84,3.097-1.292,4.774-1.292c3.435,0,6.631,1.834,8.349,4.802l12.968,22.438c2.611,4.588,1.062,10.512-3.509,13.128
			l-10.686,6.176c1.244,3.739,2.312,7.542,3.2,11.301h12.949c2.579,0,4.965,1.039,6.787,2.867c1.804,1.78,2.82,4.209,2.816,6.791
			v25.884c-0.006,5.329-4.34,9.665-9.604,9.665h-12.369c-0.762,3.833-1.745,7.641-2.869,11.311l11.201,6.492
			c4.579,2.663,6.19,8.542,3.509,13.12l-12.966,22.49c-1.721,2.971-4.918,4.805-8.301,4.805c-1.674,0-3.343-0.45-4.771-1.287
			l-10.767-6.187c-2.556,2.908-5.26,5.724-8.201,8.389l6.512,11.224c2.639,4.642,1.067,10.523-3.512,13.134l-22.441,13.008
			c-1.504,0.844-3.175,1.25-4.827,1.25c-3.406,0-6.602-1.836-8.291-4.806l-6.2-10.678c-3.656,1.272-7.419,2.335-11.292,3.19v12.967
			C919.847,546.84,915.533,551.174,910.236,551.174L910.236,551.174z M860.449,518.77l2.434,0.827
			c5.059,1.689,10.281,3.034,15.466,3.893l2.596,0.451v17.621c0,1.838,1.488,3.353,3.354,3.353l25.938,0.006
			c1.873,0,3.357-1.518,3.357-3.359v-18.066l2.53-0.479c5.307-1.073,10.449-2.567,15.331-4.338l2.491-0.91l8.787,15.188
			c0.889,1.587,3,2.138,4.584,1.223l22.479-12.967c1.583-0.918,2.143-2.979,1.22-4.594l-9.087-15.64l1.961-1.684
			c4.02-3.563,7.785-7.386,11.141-11.427l1.679-2.002l15.256,8.789c1.536,0.902,3.674,0.305,4.583-1.23l12.964-22.487
			c0.922-1.602,0.354-3.66-1.223-4.581l-15.665-9.021l0.856-2.435c1.677-4.952,2.961-10.142,3.877-15.42l0.456-2.593h17.618
			c1.851,0,3.347-1.523,3.348-3.413v-25.932c0.002-0.866-0.366-1.705-0.985-2.367c-0.64-0.622-1.459-0.991-2.362-0.991h-18.07
			l-0.499-2.512c-1.033-5.127-2.466-10.31-4.326-15.357l-0.891-2.493l15.17-8.778c1.622-0.92,2.14-2.984,1.222-4.593l-12.964-22.432
			c-0.861-1.53-2.996-2.136-4.581-1.225l-15.652,9.019l-1.683-1.916c-3.56-4.033-7.387-7.772-11.407-11.13l-2.024-1.681
			l8.763-15.251c0.916-1.602,0.396-3.665-1.23-4.585l-22.435-12.971c-1.529-0.897-3.671-0.304-4.575,1.229l-9.048,15.641
			l-2.411-0.833c-4.951-1.676-10.153-2.98-15.492-3.897l-2.597-0.453v-17.574c0-1.883-1.509-3.401-3.361-3.401h-25.928
			c-1.872,0-3.366,1.518-3.366,3.401v18.028l-2.498,0.521c-5.23,1.015-10.381,2.51-15.387,4.34l-2.457,0.869l-8.752-15.197
			c-0.916-1.586-3.041-2.143-4.661-1.222l-22.437,12.97c-0.766,0.451-1.319,1.148-1.535,1.995c-0.246,0.898-0.137,1.813,0.317,2.586
			l9.053,15.647l-1.902,1.728c-4.114,3.594-7.865,7.418-11.132,11.38l-1.681,2.05l-15.249-8.832
			c-1.535-0.857-3.711-0.303-4.63,1.284l-12.967,22.429c-0.452,0.768-0.558,1.68-0.316,2.53c0.223,0.896,0.774,1.598,1.575,2.05
			l15.638,9.021l-0.82,2.433c-1.687,5.015-3.001,10.207-3.913,15.474l-0.45,2.595H776.24c-1.845,0-3.365,1.521-3.365,3.365v25.929
			c0,1.841,1.521,3.36,3.365,3.36h18.054l0.498,2.516c1.059,5.256,2.499,10.436,4.328,15.349l0.911,2.498l-15.239,8.783
			c-0.77,0.455-1.32,1.154-1.541,2.046c-0.22,0.85-0.103,1.761,0.32,2.529l12.964,22.491c0.905,1.526,3.038,2.085,4.617,1.218
			l15.658-9.058l1.684,1.912c3.6,4.099,7.427,7.842,11.435,11.139l2,1.681l-8.793,15.254c-0.43,0.815-0.536,1.726-0.322,2.576
			c0.244,0.848,0.775,1.593,1.542,2.001l22.506,12.968c1.534,0.907,3.669,0.354,4.538-1.172L860.449,518.77L860.449,518.77z
			 M895.837,492.358c-38.838,0-70.391-31.58-70.391-70.402c0-38.826,31.553-70.408,70.391-70.408
			c38.782,0,70.365,31.583,70.365,70.408C966.202,460.778,934.619,492.358,895.837,492.358L895.837,492.358z M895.837,357.801
			c-35.384,0-64.159,28.812-64.159,64.155c0,35.383,28.775,64.149,64.159,64.149c35.363,0,64.134-28.766,64.134-64.149
			C959.971,386.613,931.2,357.801,895.837,357.801L895.837,357.801z"/>
	</g>
</g>
<g opacity="0.2">
	<path fill="#FFFFFF" d="M1037.328,345.421h-12.9c-3.662,0-6.666-3.024-6.666-6.688V330.4c0-0.61-0.622-1.511-1.222-1.684
		l-3.968-1.658c-0.72-0.316-1.851-0.098-2.241,0.23l-5.896,5.939c-2.543,2.513-6.934,2.509-9.417-0.001l-9.151-9.15
		c-1.235-1.232-1.968-2.908-1.968-4.721c0.021-1.767,0.735-3.442,1.972-4.674l5.933-5.933c0.42-0.396,0.581-1.472,0.313-2.005
		l-1.664-4.025c-0.268-0.76-1.13-1.387-1.736-1.387h-8.38c-3.662,0-6.663-2.979-6.663-6.642v-12.951
		c0-3.664,3.001-6.644,6.663-6.644h8.38c0.606,0,1.469-0.67,1.685-1.218l1.61-3.967c0.373-0.756,0.211-1.834-0.21-2.277
		l-5.935-5.888c-1.235-1.231-1.968-2.908-1.968-4.719c0.021-1.768,0.734-3.442,1.972-4.675l9.147-9.15
		c2.481-2.509,6.877-2.513,9.415-0.001l5.89,5.894c0.252,0.229,0.766,0.458,1.37,0.458c0.404,0,0.585-0.081,0.704-0.098l3.97-1.669
		c0.772-0.29,1.395-1.149,1.395-1.753v-8.38c0-3.666,3.004-6.644,6.666-6.644h12.9c3.667,0,6.674,2.978,6.674,6.644v8.38
		c0,0.604,0.642,1.465,1.207,1.675l3.977,1.623c1.175,0.584,1.938,0.124,2.254-0.235l5.932-5.893
		c2.498-2.516,6.907-2.513,9.371,0.003l9.147,9.152c1.251,1.228,1.966,2.902,1.966,4.669c0.002,1.811-0.713,3.488-1.968,4.723
		l-5.918,5.887c-0.385,0.44-0.603,1.521-0.327,2.054l1.666,3.97c0.285,0.812,1.176,1.436,1.779,1.436h8.329
		c3.663,0,6.668,2.979,6.668,6.644v12.951c0,3.663-3.005,6.642-6.668,6.642h-8.329c-0.604,0-1.494,0.624-1.676,1.216l-1.646,3.977
		c-0.399,0.752-0.182,1.829,0.206,2.227l5.917,5.935c1.249,1.228,1.966,2.903,1.966,4.669c0.002,1.812-0.713,3.488-1.968,4.722
		l-9.149,9.149c-2.46,2.507-6.871,2.513-9.363,0.003l-5.936-5.891c-0.319-0.364-1.506-0.608-2.086-0.362l-3.943,1.664
		c-0.767,0.247-1.408,1.148-1.408,1.759v8.332C1044.002,342.397,1040.995,345.421,1037.328,345.421L1037.328,345.421z
		 M1011.696,320.627c1.226,0,2.435,0.245,3.464,0.769l3.562,1.458c2.958,0.987,5.294,4.263,5.294,7.546v8.332
		c0,0.227,0.164,0.436,0.413,0.436h12.9c0.252,0,0.422-0.211,0.422-0.436V330.4c0-3.282,2.38-6.559,5.478-7.621l3.554-1.466
		c0.864-0.442,2.056-0.687,3.28-0.687c2.184,0,4.351,0.847,5.801,2.292l5.881,5.887c0.109,0.083,0.245,0.135,0.3,0.135l9.425-9.285
		l-0.002-0.001l0.002-0.545l-5.919-5.936c-2.321-2.309-2.945-6.324-1.461-9.241l1.431-3.583c1.005-2.907,4.256-5.27,7.569-5.27
		h8.329c0.247,0,0.414-0.211,0.414-0.389v-12.951c0-0.223-0.167-0.391-0.414-0.391h-8.329c-3.314,0-6.614-2.362-7.62-5.49
		l-1.489-3.577c-1.373-2.744-0.749-6.714,1.568-9.021l5.921-5.938l-0.002-0.002l0.002-0.542l-9.149-9.155
		c-0.332-0.134-0.468-0.08-0.577,0.003l-5.882,5.891c-2.248,2.266-6.385,2.956-9.264,1.517l-3.559-1.463
		c-2.9-0.974-5.287-4.25-5.287-7.539v-8.38c0-0.177-0.175-0.391-0.422-0.391h-12.9c-0.227,0-0.413,0.167-0.413,0.391v8.38
		c0,3.29-2.343,6.566-5.495,7.619l-3.529,1.465c-0.858,0.443-2.067,0.689-3.297,0.689c-2.183,0-4.354-0.847-5.797-2.292l-5.885-5.89
		h-0.572l-9.15,9.155l0.001,0.001l-0.001,0.542l5.938,5.892c2.3,2.352,2.926,6.322,1.493,9.284l-1.479,3.58
		c-0.962,2.912-4.263,5.271-7.525,5.271h-8.38c-0.222,0-0.409,0.17-0.409,0.391v12.951c0,0.176,0.188,0.389,0.409,0.389h8.38
		c3.262,0,6.562,2.359,7.621,5.483l1.443,3.593c1.375,2.739,0.75,6.71-1.553,9.017l-5.939,5.937l0.001,0.001l-0.001,0.545l9.15,9.15
		c0.354,0.134,0.466,0.082,0.574-0.001l5.889-5.889C1007.337,321.475,1009.509,320.627,1011.696,320.627L1011.696,320.627z
		 M1030.879,308.366c-11.132,0-20.151-9.021-20.151-20.151c0-11.131,9.02-20.196,20.151-20.196c11.131,0,20.153,9.065,20.153,20.196
		C1051.032,299.344,1042.01,308.366,1030.879,308.366L1030.879,308.366z M1030.879,274.272c-7.647,0-13.897,6.249-13.897,13.942
		c0,7.647,6.25,13.898,13.897,13.898c7.668,0,13.917-6.251,13.917-13.898C1044.796,280.521,1038.547,274.272,1030.879,274.272
		L1030.879,274.272z"/>
</g>
<path opacity="0.2" fill="#FFFFFF" d="M967.656,248.471h-4.68c-1.073,0-2.269-0.838-2.589-1.844l-0.873-2.123
	c-0.49-0.98-0.241-2.368,0.52-3.133l3.267-3.284c0.766-0.76,0.766-2.038,0-2.8l-5.054-5.059c-0.768-0.764-2.021-0.764-2.785,0
	l-3.304,3.282c-0.764,0.764-2.152,0.996-3.115,0.482l-2.097-0.852c-1.046-0.321-1.863-1.517-1.863-2.589v-4.654
	c0-1.07-0.881-1.929-1.979-1.929h-7.18c-1.113,0-1.974,0.858-1.974,1.929v4.654c0,1.073-0.855,2.269-1.884,2.589l-2.081,0.852
	c-0.977,0.514-2.392,0.282-3.152-0.482l-3.262-3.282c-0.764-0.764-1.996-0.764-2.798,0l-5.082,5.059c-0.766,0.762-0.766,2.04,0,2.8
	l3.301,3.284c0.765,0.765,0.974,2.153,0.504,3.133l-0.865,2.123c-0.347,1.005-1.519,1.844-2.593,1.844h-4.633
	c-1.07,0-1.974,0.857-1.974,1.975v7.178c0,1.074,0.903,1.974,1.974,1.974h4.633c1.074,0,2.246,0.836,2.593,1.844l0.865,2.123
	c0.47,0.935,0.261,2.369-0.504,3.133l-3.301,3.285c-0.766,0.763-0.766,1.995,0,2.756l5.082,5.103c0.802,0.763,2.034,0.763,2.798,0
	l3.262-3.285c0.761-0.763,2.176-0.992,3.152-0.524l2.081,0.851c1.028,0.367,1.884,1.517,1.884,2.59v4.651
	c0,1.12,0.86,1.974,1.974,1.974h7.18c1.099,0,1.979-0.854,1.979-1.974v-4.651c0-1.073,0.817-2.224,1.863-2.59l2.097-0.851
	c0.963-0.467,2.352-0.238,3.115,0.524l3.304,3.285c0.764,0.763,2.018,0.763,2.785,0l5.054-5.103c0.766-0.761,0.766-1.993,0-2.756
	l-3.267-3.285c-0.761-0.764-1.01-2.198-0.52-3.133l0.873-2.123c0.32-1.007,1.516-1.844,2.589-1.844h4.68
	c1.023,0,1.927-0.9,1.927-1.974v-7.178C969.582,249.328,968.679,248.471,967.656,248.471z M939.497,263.501
	c-5.21,0-9.47-4.259-9.47-9.466c0-5.254,4.26-9.514,9.47-9.514c5.271,0,9.489,4.26,9.489,9.514
	C948.987,259.243,944.769,263.501,939.497,263.501z"/>
<path fill="#FFFFFF" d="M709.625,289.274c0-28.814-23.35-52.169-52.173-52.169c-6.182,0-12.123,1.14-17.61,3.133
	c-6.337-26.918-30.437-46.986-59.27-46.986c-33.192,0-60.197,26.625-60.826,59.713c-2.963-0.609-6.011-0.968-9.131-0.968
	c-24.663,0-44.709,20.037-44.709,44.751c0,20.214,13.431,37.24,31.816,42.799c3.721,1.221,7.631,1.906,11.802,1.906h150.53
	c4.582,0,9.009-0.903,13.1-2.432C694.288,332.386,709.625,312.621,709.625,289.274z"/>
<path fill="#99D5DC" d="M793.327,260.996c0-25.4-20.606-46.008-46.026-46.008c-5.464,0-10.683,0.997-15.532,2.756
	c-5.586-23.729-26.853-41.433-52.274-41.433c-29.295,0-53.15,23.497-53.703,52.649c-2.596-0.489-5.317-0.79-8.017-0.79
	c-21.806,0-39.494,17.633-39.494,39.445c0,17.843,11.881,32.877,28.079,37.763c3.271,1.071,6.767,1.679,10.42,1.679h132.819
	c4.053,0,7.953-0.771,11.538-2.134C779.794,299.057,793.327,281.597,793.327,260.996z"/>
<g>
	<g>
		<path fill="#B7C9CB" d="M507.395,856.381c-7.316,29.82-14.63,59.678-21.897,89.562c68.134,0,136.27,0,204.445,0
			c-7.312-29.884-14.625-59.741-21.899-89.562C614.497,856.381,560.946,856.381,507.395,856.381z"/>
		<path fill="#E8E8E8" d="M702.554,944.37H472.841c-5.857,0-10.587,5.539-10.587,12.4v4.611h250.884v-4.611
			C713.138,949.909,708.409,944.37,702.554,944.37z"/>
		<path fill="#E8E8E8" d="M242.24,821.503v49.37c0,9.482,7.698,17.174,17.222,17.174h656.514c9.475,0,17.196-7.691,17.196-17.174
			v-49.37H242.24z"/>
		<path fill="#174F78" d="M933.172,821.503V403.562c0-9.527-7.722-17.227-17.196-17.227H259.462
			c-9.524,0-17.222,7.699-17.222,17.227v417.941H933.172z"/>
		<rect x="270.541" y="413.24" fill="#FFFFFF" width="634.314" height="379.701"/>
	</g>
	<g>
		<rect x="340.711" y="730.381" fill="#F3901D" width="29.062" height="38.751"/>
		<rect x="398.835" y="695.517" fill="#F3901D" width="29.061" height="73.615"/>
		<rect x="456.96" y="668.807" fill="#F3901D" width="29.017" height="100.325"/>
		<rect x="515.042" y="692.978" fill="#F3901D" width="29.06" height="76.154"/>
		<rect x="573.164" y="606.409" fill="#F3901D" width="29.063" height="162.723"/>
		<rect x="631.289" y="635.472" fill="#F3901D" width="29.062" height="133.66"/>
		<rect x="689.411" y="575.43" fill="#F3901D" width="29.06" height="193.702"/>
		<rect x="747.536" y="521.187" fill="#F3901D" width="29.056" height="247.945"/>
		<rect x="805.633" y="464.982" fill="#F3901D" width="29.048" height="304.15"/>
	</g>
	<g>
		<rect x="312.641" y="457.496" fill="#DE3F18" width="118.55" height="11.292"/>
		<rect x="312.641" y="486.188" fill="#99D5DC" width="214.276" height="6.944"/>
		<rect x="312.641" y="507.534" fill="#99D5DC" width="182.093" height="6.945"/>
		<rect x="312.641" y="528.834" fill="#99D5DC" width="201.777" height="6.945"/>
		<rect x="312.641" y="550.182" fill="#99D5DC" width="157.014" height="6.944"/>
		<path fill="#DE3F18" d="M312.641,577.204v20.292h69.349v-20.292H312.641z M370.378,590.84h-46.127v-6.94h46.127V590.84z"/>
	</g>
</g>
<g>
	<path fill="#99D5DC" d="M310.052,727.568c-1.006,0-2.002-0.493-2.608-1.41c-0.969-1.441-0.53-3.403,0.919-4.329l165.614-107.268
		c0.939-0.618,2.216-0.679,3.213-0.132l49.508,27.75l60.889-95.428c0.463-0.753,1.225-1.231,2.118-1.383
		c0.846-0.155,1.751,0.07,2.442,0.606l52.119,40.074L815.99,437.965c1.29-1.138,3.269-0.989,4.392,0.313
		c1.15,1.302,1,3.28-0.314,4.417L646.455,592.452c-1.135,0.981-2.801,1.002-3.958,0.136l-51.476-39.589l-60.654,95
		c-0.86,1.426-2.689,1.884-4.137,1.058l-50.473-28.232l-164.02,106.252C311.208,727.413,310.651,727.568,310.052,727.568
		L310.052,727.568z"/>
</g>
<path fill="#DE3F18" d="M326.614,723.112c0,6.734-5.434,12.197-12.203,12.197c-6.721,0-12.154-5.463-12.154-12.197
	c0-6.762,5.434-12.189,12.154-12.189C321.179,710.923,326.614,716.351,326.614,723.112z"/>
<path fill="#DE3F18" d="M485.974,618.446c0,6.725-5.435,12.157-12.202,12.157c-6.722,0-12.156-5.433-12.156-12.157
	c0-6.766,5.434-12.198,12.156-12.198C480.539,606.248,485.974,611.681,485.974,618.446z"/>
<path fill="#DE3F18" d="M539.608,645.527c0,6.724-5.435,12.158-12.157,12.158c-6.766,0-12.2-5.435-12.2-12.158
	c0-6.765,5.434-12.201,12.2-12.201C534.173,633.326,539.608,638.763,539.608,645.527z"/>
<path fill="#DE3F18" d="M603.149,549.182c0,6.722-5.435,12.157-12.203,12.157c-6.72,0-12.155-5.435-12.155-12.157
	c0-6.766,5.435-12.201,12.155-12.201C597.714,536.981,603.149,542.416,603.149,549.182z"/>
<path fill="#DE3F18" d="M658.896,591.368c0,6.721-5.479,12.156-12.201,12.156s-12.201-5.435-12.201-12.156
	c0-6.766,5.479-12.201,12.201-12.201S658.896,584.602,658.896,591.368z"/>
<path fill="#DE3F18" d="M830.233,440.33c0,6.722-5.477,12.201-12.202,12.201c-6.721,0-12.201-5.479-12.201-12.201
	c0-6.723,5.48-12.201,12.201-12.201C824.756,428.129,830.233,433.607,830.233,440.33z"/>
<g>
	<defs>
		<path id="SVGID_1_" d="M933.172,821.503V403.562c0-9.527-7.722-17.227-17.196-17.227H259.462c-9.524,0-17.222,7.699-17.222,17.227
			v417.941H933.172z"/>
	</defs>
	<clipPath id="SVGID_2_">
		<use xlink:href="#SVGID_1_"  overflow="visible"/>
	</clipPath>
</g>
<path fill="#DE3F18" d="M1089.116,855.069c-0.011,0.007-0.07,0.015-0.077,0.053c-11.947,11.904-31.318,11.852-43.223-0.105
	l-93.225-93.678c-11.896-11.96-11.888-31.278,0.021-43.184c0.009-0.046,0.037-0.051,0.047-0.074
	c11.99-11.904,31.34-11.875,43.264,0.095l93.229,93.683C1101.051,823.837,1101.022,843.135,1089.116,855.069L1089.116,855.069z"/>
<path fill="#FD6120" d="M1075.775,854.475c-4.583,4.571-12.09,4.558-16.679-0.061l-93.228-93.684
	c-4.604-4.629-4.581-12.12,0.006-16.717c4.634-4.632,12.165-4.624,16.775,0.021l93.225,93.664
	c4.583,4.646,4.579,12.131-0.005,16.725L1075.775,854.475z"/>
<path fill="#103754" d="M939.689,704.739h-0.003c-22.639,22.67-52.737,35.103-84.723,35.079
	c-65.904-0.139-119.397-53.845-119.299-119.747c0.07-31.761,12.505-61.722,35.07-84.238c22.641-22.654,52.702-35.092,84.677-35.07
	c31.88,0.07,61.85,12.572,84.395,35.22c22.571,22.607,34.967,52.646,34.921,84.531C974.681,652.313,962.221,682.219,939.689,704.739
	L939.689,704.739z"/>
<g>
	<path fill="#FFFFFF" d="M792.346,557.434c-16.782,16.782-26.035,39.058-26.09,62.708c-0.088,49.041,39.729,89.009,88.757,89.084
		c23.796,0.027,46.181-9.222,63.065-26.094l0.003,0.004c16.779-16.776,25.997-39.041,26.083-62.687
		c0.041-23.719-9.208-46.023-25.996-62.879c-16.812-16.855-39.104-26.16-62.816-26.22C831.6,531.33,809.197,540.576,792.346,557.434
		L792.346,557.434z"/>
	<path fill="#FFFFFF" d="M918.168,557.57c-16.812-16.855-39.104-26.16-62.816-26.22c-6.664-0.006-13.258,0.749-19.618,2.142
		c-9.67,4.404-18.609,10.516-26.376,18.285c-16.748,16.78-26.019,39.054-26.054,62.708c-0.103,48.999,39.718,88.972,88.748,89.046
		c6.704,0.045,13.268-0.714,19.664-2.148c9.672-4.364,18.616-10.517,26.362-18.25l0.003,0.004
		c16.779-16.776,25.997-39.041,26.083-62.687C944.205,596.73,934.956,574.426,918.168,557.57z"/>
</g>
<g>
	<path fill="#174F78" d="M854.971,733.028c-30.065-0.059-58.344-11.823-79.603-33.181c-21.271-21.358-32.992-49.666-32.921-79.771
		c0.062-29.991,11.807-58.218,33.036-79.494c21.344-21.296,49.622-33.038,79.682-33.038c0.088,0,0.147,0,0.236,0l-0.04,15.034
		c-0.083,0-0.111,0-0.196,0c-26.044,0-50.553,10.2-69.021,28.666c-18.444,18.403-28.61,42.881-28.668,68.887
		c-0.021,26.029,10.109,50.584,28.527,69.104c18.454,18.483,42.958,28.709,69.004,28.767L854.971,733.028L854.971,733.028z"/>
</g>
<g>
	<path fill="none" d="M929.579,694.659"/>
</g>
<g>
	<defs>
		<path id="SVGID_3_" d="M792.346,557.434c-16.782,16.782-26.035,39.058-26.09,62.708c-0.088,49.041,39.729,89.009,88.757,89.084
			c23.796,0.027,46.181-9.222,63.065-26.094l0.003,0.004c16.779-16.776,25.997-39.041,26.083-62.687
			c0.041-23.719-9.208-46.023-25.996-62.879c-16.812-16.855-39.104-26.16-62.816-26.22
			C831.6,531.33,809.197,540.576,792.346,557.434L792.346,557.434z"/>
	</defs>
	<clipPath id="SVGID_4_">
		<use xlink:href="#SVGID_3_"  overflow="visible"/>
	</clipPath>
	<g clip-path="url(#SVGID_4_)">
		<rect x="736.201" y="403.091" fill="#F3901D" width="52.238" height="445.62"/>
		<rect x="818.023" y="304.459" fill="#F3901D" width="52.198" height="546.594"/>
	</g>
</g>
<g opacity="0.2">
	<path fill="#3AA9B5" d="M792.346,557.434c-16.782,16.782-26.035,39.058-26.09,62.708c-0.088,49.041,39.729,89.009,88.757,89.084
		c23.796,0.027,46.181-9.222,63.065-26.094l0.003,0.004c16.779-16.776,25.997-39.041,26.083-62.687
		c0.041-23.719-9.208-46.023-25.996-62.879c-16.812-16.855-39.104-26.159-62.816-26.22
		C831.6,531.33,809.197,540.576,792.346,557.434L792.346,557.434z"/>
	<path fill="#9EE2DA" d="M918.168,557.57c-16.812-16.855-39.104-26.159-62.816-26.22c-6.664-0.006-13.258,0.749-19.618,2.142
		c-9.67,4.404-18.609,10.516-26.376,18.284c-16.748,16.781-26.019,39.055-26.054,62.708c-0.103,48.999,39.718,88.972,88.748,89.046
		c6.704,0.045,13.268-0.714,19.664-2.148c9.672-4.364,18.616-10.517,26.362-18.25l0.003,0.004
		c16.779-16.776,25.997-39.041,26.083-62.687C944.205,596.73,934.956,574.426,918.168,557.57z"/>
</g>
<g>
	<path fill="#103754" d="M964.656,730.67c-5.967,5.951-15.668,5.947-21.623-0.054l-19.059-19.639
		c-5.949-5.995-5.934-15.639,0.044-21.594c0.006-0.041,0.009-0.043,0.04-0.05c5.961-5.952,15.624-5.944,21.583,0.06l19.034,19.634
		c5.971,5.995,5.945,15.643-0.011,21.597C964.665,730.624,964.656,730.668,964.656,730.67z"/>
</g>
<g>
	<g>
		<g>
			<path fill="#174F78" d="M417.615,689.183H194.411c-9,0-16.26,7.306-16.26,16.303v293.829c0,8.991,7.26,16.229,16.26,16.229
				h223.205c8.989,0,16.254-7.237,16.254-16.229V705.485C433.869,696.488,426.604,689.183,417.615,689.183z"/>
			<path fill="#FFFFFF" d="M306.01,1007.277c-3.598,0-6.555-2.931-6.555-6.553c0-3.646,2.958-6.549,6.555-6.549
				c3.595,0,6.552,2.903,6.552,6.549C312.563,1004.347,309.605,1007.277,306.01,1007.277z"/>
			<rect x="207.153" y="720.745" fill="#FFFFFF" width="197.712" height="263.254"/>
		</g>
	</g>
	<g>
		<g>
			<path fill="#F1A648" d="M330.661,860.413c-1.171,3.697-3.133,7.014-5.669,9.811l19.451,27.198
				c9.84-8.518,16.877-20.114,19.552-33.305L330.661,860.413z"/>
			<path fill="#A1B400" d="M310.811,825.975c11.354,2.341,19.916,11.902,21.054,23.616l33.271,3.698
				c0.001-0.396,0.069-0.756,0.069-1.153c0-31.193-23.89-56.779-54.395-59.529V825.975z"/>
			<path fill="#2DAEB7" d="M285.644,834.217c3.733-4.08,8.674-7.104,14.272-8.242v-33.368c-17.72,1.59-33.201,10.945-43.049,24.629
				L285.644,834.217z"/>
			<path fill="#FD6120" d="M316.158,876.58c-3.293,1.477-6.944,2.297-10.774,2.297c-14.787,0-26.763-11.957-26.763-26.741
				c0-3.008,0.609-5.824,1.526-8.553l-28.829-16.955c-3.667,7.729-5.792,16.353-5.792,25.508c0,33.079,26.777,59.84,59.858,59.84
				c11.008,0,21.306-3.047,30.21-8.268L316.158,876.58z"/>
		</g>
		<g>
			<rect x="307.377" y="947.17" fill="#B7C9CB" width="56.979" height="5.044"/>
			<rect x="231.852" y="930.991" fill="#B7C9CB" width="56.985" height="5.046"/>
			<rect x="220.247" y="780.772" fill="#B7C9CB" width="56.985" height="5.046"/>
			<g>
				<polygon fill="#B7C9CB" points="288.926,936.503 286.539,935.896 291.814,914.836 294.245,915.444 288.926,936.503 				"/>
			</g>
			<g>
				<polygon fill="#B7C9CB" points="282.434,793.433 274.872,782.032 276.938,780.652 284.501,792.026 282.434,793.433 				"/>
			</g>
			<rect x="334.295" y="776.433" fill="#B7C9CB" width="56.983" height="5.044"/>
			<g>
				<polygon fill="#B7C9CB" points="327.681,792.553 325.546,791.257 334.531,776.347 336.667,777.616 327.681,792.553 				"/>
			</g>
			<g>
				<polygon fill="#B7C9CB" points="361.841,948.535 349.486,896.359 351.919,895.767 364.275,947.939 361.841,948.535 				"/>
			</g>
		</g>
	</g>
</g>
</svg>
